<svg width="52" height="52" viewBox="0 0 52 52" fill="none" xmlns="http://www.w3.org/2000/svg">
<g clip-path="url(#clip0_62_2090)">
<path d="M52 26.2023C52 24.395 51.8568 22.578 51.5513 20.8H27.04V31.038H41.0765C40.494 34.3399 38.1005 37.6639 35.36 39.52L35.882 45.76L43.68 45.76C48.5976 41.1295 52 34.2911 52 26.2023Z" fill="white"/>
<path d="M26.4067 52C33.4348 52 39.3618 49.7215 43.6801 45.7884L35.3601 39.52C33.0238 41.0895 29.9303 41.8175 26.4163 41.8175C19.618 41.8175 13.5083 37.2887 11.4401 31.2H3.12012V37.8276C7.5438 46.5164 16.5539 52 26.4067 52Z" fill="white"/>
<path d="M11.4399 31.2C10.2478 28.0357 10.7678 23.9642 11.9599 20.8L12.4799 14.56L3.11988 14.04C-0.916385 21.2391 -1.00916 30.2408 3.0271 37.44L11.4399 31.2Z" fill="white"/>
<path d="M26.9083 10.1788C30.7035 10.1221 34.3715 11.5017 37.12 14.0342L44.7201 6.69195C39.9077 2.3263 33.5205 -0.0738627 26.9083 0.00173302C16.8433 0.00173302 7.63909 5.34649 3.12012 14.04L11.9624 20.8C14.0654 14.7051 19.9636 10.1788 26.9083 10.1788Z" fill="white"/>
</g>
<defs>
<clipPath id="clip0_62_2090">
<rect width="52" height="52" fill="white"/>
</clipPath>
</defs>
</svg>
