<svg width="48" height="48" viewBox="0 0 48 48" fill="none" xmlns="http://www.w3.org/2000/svg">
<path d="M1 47V27.4937H10.2579V12.9367C10.2579 8.86075 14.7711 1 23.566 1C32.361 1 37.7421 9.15189 37.7421 12.9367V27.4937H47V47" stroke="#29EFCB" stroke-width="2"/>
<path d="M19.5159 18.1771H14.5977V13.2278H19.5159V18.1771Z" stroke="#29EFCB" stroke-width="2"/>
<path d="M33.6917 18.1771H28.7734V13.2278H33.6917V18.1771Z" stroke="#29EFCB" stroke-width="2"/>
<path d="M5.33984 31.5696V46.4177H10.2581V32.1519H14.5977V22.5443M33.1134 22.5443V32.443H42.6606V37.1012H37.7424V41.7595H42.6606V46.4177H32.8241" stroke="#29EFCB" stroke-width="2"/>
<path d="M19.8052 22.5443V37.1012H14.5977V41.7595H19.8052" stroke="#29EFCB" stroke-width="2"/>
<path d="M14.3081 46.4177H24.1446V22.5443" stroke="#29EFCB" stroke-width="2"/>
<path d="M28.7734 47V41.817H33.4024V36.9287H28.7734V22.5443" stroke="#29EFCB" stroke-width="2"/>
</svg>
