<svg width="50" height="50" viewBox="0 0 50 50" fill="none" xmlns="http://www.w3.org/2000/svg">
<path d="M50 25C50 38.8071 38.8071 50 25 50C11.1929 50 0 38.8071 0 25C0 11.1929 11.1929 0 25 0C38.8071 0 50 11.1929 50 25Z" fill="url(#paint0_linear_200_1312)"/>
<path d="M21 32.5V49.5C21 49.7761 21.2239 50 21.5 50H28.5C28.7761 50 29 49.7761 29 49.5V32.5C29 32.2239 29.2239 32 29.5 32H34.5C34.7761 32 35 31.7761 35 31.5V25.5C35 25.2239 34.7761 25 34.5 25H29.5C29.2239 25 29 24.7765 29 24.5003V20C29 18 31.5 17 32.5 17H35.5C35.7761 17 36 16.7761 36 16.5V10.5C36 10.2239 35.7762 10 35.5001 10H29C24.2 10 21 15 21 18V24.5C21 24.7761 20.7761 25 20.5 25H15.5C15.2239 25 15 25.2239 15 25.5V31.5C15 31.7761 15.2239 32 15.5 32H20.5C20.7761 32 21 32.2239 21 32.5Z" fill="#363B3E"/>
<defs>
<linearGradient id="paint0_linear_200_1312" x1="25" y1="0" x2="25" y2="50" gradientUnits="userSpaceOnUse">
<stop stop-color="white"/>
<stop offset="1" stop-color="white"/>
</linearGradient>
</defs>
</svg>
