<svg width="52" height="52" viewBox="0 0 52 52" fill="none" xmlns="http://www.w3.org/2000/svg">
<rect width="52" height="52" rx="26" fill="white"/>
<path d="M35.2808 32.424C34.933 33.2275 34.5213 33.9672 34.0442 34.6473C33.394 35.5743 32.8616 36.216 32.4513 36.5724C31.8153 37.1573 31.1338 37.4569 30.4041 37.4739C29.8802 37.4739 29.2485 37.3248 28.513 37.0224C27.7752 36.7214 27.0972 36.5724 26.4772 36.5724C25.827 36.5724 25.1296 36.7214 24.3837 37.0224C23.6366 37.3248 23.0348 37.4824 22.5747 37.498C21.8749 37.5278 21.1774 37.2198 20.4812 36.5724C20.0368 36.1848 19.481 35.5204 18.8151 34.5791C18.1007 33.574 17.5134 32.4084 17.0533 31.0795C16.5605 29.6442 16.3135 28.2543 16.3135 26.9087C16.3135 25.3673 16.6465 24.0379 17.3137 22.9239C17.838 22.029 18.5355 21.3231 19.4084 20.8049C20.2814 20.2868 21.2247 20.0227 22.2405 20.0058C22.7963 20.0058 23.5252 20.1777 24.431 20.5156C25.3342 20.8546 25.9141 21.0266 26.1684 21.0266C26.3585 21.0266 27.0028 20.8255 28.0949 20.4247C29.1278 20.0531 29.9995 19.8992 30.7136 19.9598C32.6487 20.116 34.1024 20.8788 35.0693 22.253C33.3386 23.3016 32.4826 24.7703 32.4996 26.6544C32.5152 28.122 33.0476 29.3432 34.0939 30.3129C34.5681 30.7629 35.0977 31.1108 35.6868 31.3578C35.5591 31.7283 35.4242 32.0833 35.2808 32.424ZM30.8428 14.9601C30.8428 16.1104 30.4226 17.1844 29.5849 18.1785C28.5741 19.3602 27.3514 20.0431 26.0256 19.9354C26.0087 19.7974 25.9989 19.6521 25.9989 19.4995C25.9989 18.3953 26.4796 17.2135 27.3333 16.2473C27.7595 15.758 28.3015 15.3512 28.9588 15.0267C29.6147 14.7071 30.2352 14.5303 30.8187 14.5C30.8357 14.6538 30.8428 14.8076 30.8428 14.9601V14.9601Z" fill="#363B3E"/>
</svg>
