<svg width="24" height="24" viewBox="0 0 24 24" fill="none" xmlns="http://www.w3.org/2000/svg">
<path d="M13.3393 12.0707L16.8586 15.59L15.59 16.8586L12.0707 13.3393L12 13.2686L11.9293 13.3393L8.41 16.8586L7.14142 15.59L10.6607 12.0707L10.7314 12L10.6607 11.9293L7.14142 8.41L8.41 7.14142L11.9293 10.6607L12 10.7314L12.0707 10.6607L15.59 7.14142L16.8586 8.41L13.3393 11.9293L13.2686 12L13.3393 12.0707ZM2.1 12C2.1 6.52523 6.52523 2.1 12 2.1C17.4748 2.1 21.9 6.52523 21.9 12C21.9 17.4748 17.4748 21.9 12 21.9C6.52523 21.9 2.1 17.4748 2.1 12ZM3.9 12C3.9 16.4652 7.53477 20.1 12 20.1C16.4652 20.1 20.1 16.4652 20.1 12C20.1 7.53477 16.4652 3.9 12 3.9C7.53477 3.9 3.9 7.53477 3.9 12Z" fill="#2BFFD9" stroke="#2BFFD9" stroke-width="0.2"/>
</svg>
